<svg id="visual" viewBox="0 0 600 900" width="600" height="900" xmlns="http://www.w3.org/2000/svg" xmlns:xlink="http://www.w3.org/1999/xlink" version="1.1"><rect x="0" y="0" width="600" height="900" fill="#eefbfc"></rect><defs><linearGradient id="grad1_0" x1="0%" y1="0%" x2="100%" y2="100%"><stop offset="30%" stop-color="#29bddb" stop-opacity="1"></stop><stop offset="70%" stop-color="#29bddb" stop-opacity="1"></stop></linearGradient></defs><defs><linearGradient id="grad1_1" x1="0%" y1="0%" x2="100%" y2="100%"><stop offset="30%" stop-color="#29bddb" stop-opacity="1"></stop><stop offset="70%" stop-color="#58c6de" stop-opacity="1"></stop></linearGradient></defs><defs><linearGradient id="grad1_2" x1="0%" y1="0%" x2="100%" y2="100%"><stop offset="30%" stop-color="#77cfe2" stop-opacity="1"></stop><stop offset="70%" stop-color="#58c6de" stop-opacity="1"></stop></linearGradient></defs><defs><linearGradient id="grad1_3" x1="0%" y1="0%" x2="100%" y2="100%"><stop offset="30%" stop-color="#77cfe2" stop-opacity="1"></stop><stop offset="70%" stop-color="#91d8e6" stop-opacity="1"></stop></linearGradient></defs><defs><linearGradient id="grad1_4" x1="0%" y1="0%" x2="100%" y2="100%"><stop offset="30%" stop-color="#aae1ea" stop-opacity="1"></stop><stop offset="70%" stop-color="#91d8e6" stop-opacity="1"></stop></linearGradient></defs><defs><linearGradient id="grad1_5" x1="0%" y1="0%" x2="100%" y2="100%"><stop offset="30%" stop-color="#aae1ea" stop-opacity="1"></stop><stop offset="70%" stop-color="#c1eaef" stop-opacity="1"></stop></linearGradient></defs><defs><linearGradient id="grad1_6" x1="0%" y1="0%" x2="100%" y2="100%"><stop offset="30%" stop-color="#d8f2f5" stop-opacity="1"></stop><stop offset="70%" stop-color="#c1eaef" stop-opacity="1"></stop></linearGradient></defs><defs><linearGradient id="grad1_7" x1="0%" y1="0%" x2="100%" y2="100%"><stop offset="30%" stop-color="#d8f2f5" stop-opacity="1"></stop><stop offset="70%" stop-color="#eefbfc" stop-opacity="1"></stop></linearGradient></defs><defs><linearGradient id="grad2_0" x1="0%" y1="0%" x2="100%" y2="100%"><stop offset="30%" stop-color="#29bddb" stop-opacity="1"></stop><stop offset="70%" stop-color="#29bddb" stop-opacity="1"></stop></linearGradient></defs><defs><linearGradient id="grad2_1" x1="0%" y1="0%" x2="100%" y2="100%"><stop offset="30%" stop-color="#58c6de" stop-opacity="1"></stop><stop offset="70%" stop-color="#29bddb" stop-opacity="1"></stop></linearGradient></defs><defs><linearGradient id="grad2_2" x1="0%" y1="0%" x2="100%" y2="100%"><stop offset="30%" stop-color="#58c6de" stop-opacity="1"></stop><stop offset="70%" stop-color="#77cfe2" stop-opacity="1"></stop></linearGradient></defs><defs><linearGradient id="grad2_3" x1="0%" y1="0%" x2="100%" y2="100%"><stop offset="30%" stop-color="#91d8e6" stop-opacity="1"></stop><stop offset="70%" stop-color="#77cfe2" stop-opacity="1"></stop></linearGradient></defs><defs><linearGradient id="grad2_4" x1="0%" y1="0%" x2="100%" y2="100%"><stop offset="30%" stop-color="#91d8e6" stop-opacity="1"></stop><stop offset="70%" stop-color="#aae1ea" stop-opacity="1"></stop></linearGradient></defs><defs><linearGradient id="grad2_5" x1="0%" y1="0%" x2="100%" y2="100%"><stop offset="30%" stop-color="#c1eaef" stop-opacity="1"></stop><stop offset="70%" stop-color="#aae1ea" stop-opacity="1"></stop></linearGradient></defs><defs><linearGradient id="grad2_6" x1="0%" y1="0%" x2="100%" y2="100%"><stop offset="30%" stop-color="#c1eaef" stop-opacity="1"></stop><stop offset="70%" stop-color="#d8f2f5" stop-opacity="1"></stop></linearGradient></defs><defs><linearGradient id="grad2_7" x1="0%" y1="0%" x2="100%" y2="100%"><stop offset="30%" stop-color="#eefbfc" stop-opacity="1"></stop><stop offset="70%" stop-color="#d8f2f5" stop-opacity="1"></stop></linearGradient></defs><g transform="translate(600, 0)"><path d="M0 459.7C-60.2 447.6 -120.4 435.6 -169.1 408.4C-217.9 381.1 -255.1 338.8 -299.8 299.8C-344.6 260.9 -396.8 225.3 -424.7 175.9C-452.6 126.5 -456.2 63.3 -459.7 0L0 0Z" fill="#e3f7f9"></path><path d="M0 402.2C-52.7 391.7 -105.4 381.1 -148 357.3C-190.6 333.5 -223.2 296.4 -262.3 262.3C-301.5 228.3 -347.2 197.2 -371.6 153.9C-396 110.7 -399.1 55.4 -402.2 0L0 0Z" fill="#cdeef2"></path><path d="M0 344.8C-45.2 335.7 -90.3 326.7 -126.9 306.3C-163.4 285.9 -191.3 254.1 -224.9 224.9C-258.4 195.6 -297.6 169 -318.5 131.9C-339.5 94.9 -342.1 47.4 -344.8 0L0 0Z" fill="#b6e5ed"></path><path d="M0 287.3C-37.6 279.8 -75.3 272.2 -105.7 255.2C-136.2 238.2 -159.4 211.7 -187.4 187.4C-215.3 163 -248 140.8 -265.4 110C-282.9 79.1 -285.1 39.5 -287.3 0L0 0Z" fill="#9edde8"></path><path d="M0 229.9C-30.1 223.8 -60.2 217.8 -84.6 204.2C-108.9 190.6 -127.5 169.4 -149.9 149.9C-172.3 130.4 -198.4 112.7 -212.4 88C-226.3 63.3 -228.1 31.6 -229.9 0L0 0Z" fill="#84d4e4"></path><path d="M0 172.4C-22.6 167.9 -45.2 163.3 -63.4 153.1C-81.7 142.9 -95.7 127 -112.4 112.4C-129.2 97.8 -148.8 84.5 -159.3 66C-169.7 47.4 -171.1 23.7 -172.4 0L0 0Z" fill="#68cbe0"></path><path d="M0 114.9C-15.1 111.9 -30.1 108.9 -42.3 102.1C-54.5 95.3 -63.8 84.7 -75 75C-86.1 65.2 -99.2 56.3 -106.2 44C-113.2 31.6 -114 15.8 -114.9 0L0 0Z" fill="#44c2dc"></path><path d="M0 57.5C-7.5 56 -15.1 54.4 -21.1 51C-27.2 47.6 -31.9 42.3 -37.5 37.5C-43.1 32.6 -49.6 28.2 -53.1 22C-56.6 15.8 -57 7.9 -57.5 0L0 0Z" fill="#29bddb"></path></g><g transform="translate(0, 900)"><path d="M0 -459.7C52.9 -432.8 105.7 -405.8 159.2 -384.3C212.7 -362.9 266.7 -346.9 314 -314C361.2 -281 401.6 -231.1 424.7 -175.9C447.9 -120.8 453.8 -60.4 459.7 0L0 0Z" fill="#e3f7f9"></path><path d="M0 -402.2C46.3 -378.7 92.5 -355.1 139.3 -336.3C186.1 -317.5 233.4 -303.5 274.7 -274.7C316 -245.9 351.4 -202.2 371.6 -153.9C391.9 -105.7 397.1 -52.8 402.2 0L0 0Z" fill="#cdeef2"></path><path d="M0 -344.8C39.6 -324.6 79.3 -304.3 119.4 -288.3C159.5 -272.2 200 -260.2 235.5 -235.5C270.9 -210.8 301.2 -173.3 318.5 -131.9C335.9 -90.6 340.3 -45.3 344.8 0L0 0Z" fill="#b6e5ed"></path><path d="M0 -287.3C33 -270.5 66.1 -253.6 99.5 -240.2C132.9 -226.8 166.7 -216.8 196.2 -196.2C225.7 -175.6 251 -144.4 265.4 -110C279.9 -75.5 283.6 -37.7 287.3 0L0 0Z" fill="#9edde8"></path><path d="M0 -229.9C26.4 -216.4 52.9 -202.9 79.6 -192.2C106.3 -181.4 133.4 -173.5 157 -157C180.6 -140.5 200.8 -115.5 212.4 -88C223.9 -60.4 226.9 -30.2 229.9 0L0 0Z" fill="#84d4e4"></path><path d="M0 -172.4C19.8 -162.3 39.6 -152.2 59.7 -144.1C79.7 -136.1 100 -130.1 117.7 -117.7C135.4 -105.4 150.6 -86.7 159.3 -66C167.9 -45.3 170.2 -22.6 172.4 0L0 0Z" fill="#68cbe0"></path><path d="M0 -114.9C13.2 -108.2 26.4 -101.4 39.8 -96.1C53.2 -90.7 66.7 -86.7 78.5 -78.5C90.3 -70.3 100.4 -57.8 106.2 -44C112 -30.2 113.4 -15.1 114.9 0L0 0Z" fill="#44c2dc"></path><path d="M0 -57.5C6.6 -54.1 13.2 -50.7 19.9 -48C26.6 -45.4 33.3 -43.4 39.2 -39.2C45.1 -35.1 50.2 -28.9 53.1 -22C56 -15.1 56.7 -7.5 57.5 0L0 0Z" fill="#29bddb"></path></g></svg>