<svg id="visual" viewBox="0 0 960 540" width="960" height="540" xmlns="http://www.w3.org/2000/svg" xmlns:xlink="http://www.w3.org/1999/xlink" version="1.1"><rect x="0" y="0" width="960" height="540" fill="#eefbfc"></rect><defs><linearGradient id="grad1_0" x1="43.8%" y1="0%" x2="100%" y2="100%"><stop offset="14.444444444444446%" stop-color="#29bddb" stop-opacity="1"></stop><stop offset="85.55555555555554%" stop-color="#29bddb" stop-opacity="1"></stop></linearGradient></defs><defs><linearGradient id="grad1_1" x1="43.8%" y1="0%" x2="100%" y2="100%"><stop offset="14.444444444444446%" stop-color="#29bddb" stop-opacity="1"></stop><stop offset="85.55555555555554%" stop-color="#58c6de" stop-opacity="1"></stop></linearGradient></defs><defs><linearGradient id="grad1_2" x1="43.8%" y1="0%" x2="100%" y2="100%"><stop offset="14.444444444444446%" stop-color="#77cfe2" stop-opacity="1"></stop><stop offset="85.55555555555554%" stop-color="#58c6de" stop-opacity="1"></stop></linearGradient></defs><defs><linearGradient id="grad1_3" x1="43.8%" y1="0%" x2="100%" y2="100%"><stop offset="14.444444444444446%" stop-color="#77cfe2" stop-opacity="1"></stop><stop offset="85.55555555555554%" stop-color="#91d8e6" stop-opacity="1"></stop></linearGradient></defs><defs><linearGradient id="grad1_4" x1="43.8%" y1="0%" x2="100%" y2="100%"><stop offset="14.444444444444446%" stop-color="#aae1ea" stop-opacity="1"></stop><stop offset="85.55555555555554%" stop-color="#91d8e6" stop-opacity="1"></stop></linearGradient></defs><defs><linearGradient id="grad1_5" x1="43.8%" y1="0%" x2="100%" y2="100%"><stop offset="14.444444444444446%" stop-color="#aae1ea" stop-opacity="1"></stop><stop offset="85.55555555555554%" stop-color="#c1eaef" stop-opacity="1"></stop></linearGradient></defs><defs><linearGradient id="grad1_6" x1="43.8%" y1="0%" x2="100%" y2="100%"><stop offset="14.444444444444446%" stop-color="#d8f2f5" stop-opacity="1"></stop><stop offset="85.55555555555554%" stop-color="#c1eaef" stop-opacity="1"></stop></linearGradient></defs><defs><linearGradient id="grad1_7" x1="43.8%" y1="0%" x2="100%" y2="100%"><stop offset="14.444444444444446%" stop-color="#d8f2f5" stop-opacity="1"></stop><stop offset="85.55555555555554%" stop-color="#eefbfc" stop-opacity="1"></stop></linearGradient></defs><defs><linearGradient id="grad2_0" x1="0%" y1="0%" x2="56.3%" y2="100%"><stop offset="14.444444444444446%" stop-color="#29bddb" stop-opacity="1"></stop><stop offset="85.55555555555554%" stop-color="#29bddb" stop-opacity="1"></stop></linearGradient></defs><defs><linearGradient id="grad2_1" x1="0%" y1="0%" x2="56.3%" y2="100%"><stop offset="14.444444444444446%" stop-color="#58c6de" stop-opacity="1"></stop><stop offset="85.55555555555554%" stop-color="#29bddb" stop-opacity="1"></stop></linearGradient></defs><defs><linearGradient id="grad2_2" x1="0%" y1="0%" x2="56.3%" y2="100%"><stop offset="14.444444444444446%" stop-color="#58c6de" stop-opacity="1"></stop><stop offset="85.55555555555554%" stop-color="#77cfe2" stop-opacity="1"></stop></linearGradient></defs><defs><linearGradient id="grad2_3" x1="0%" y1="0%" x2="56.3%" y2="100%"><stop offset="14.444444444444446%" stop-color="#91d8e6" stop-opacity="1"></stop><stop offset="85.55555555555554%" stop-color="#77cfe2" stop-opacity="1"></stop></linearGradient></defs><defs><linearGradient id="grad2_4" x1="0%" y1="0%" x2="56.3%" y2="100%"><stop offset="14.444444444444446%" stop-color="#91d8e6" stop-opacity="1"></stop><stop offset="85.55555555555554%" stop-color="#aae1ea" stop-opacity="1"></stop></linearGradient></defs><defs><linearGradient id="grad2_5" x1="0%" y1="0%" x2="56.3%" y2="100%"><stop offset="14.444444444444446%" stop-color="#c1eaef" stop-opacity="1"></stop><stop offset="85.55555555555554%" stop-color="#aae1ea" stop-opacity="1"></stop></linearGradient></defs><defs><linearGradient id="grad2_6" x1="0%" y1="0%" x2="56.3%" y2="100%"><stop offset="14.444444444444446%" stop-color="#c1eaef" stop-opacity="1"></stop><stop offset="85.55555555555554%" stop-color="#d8f2f5" stop-opacity="1"></stop></linearGradient></defs><defs><linearGradient id="grad2_7" x1="0%" y1="0%" x2="56.3%" y2="100%"><stop offset="14.444444444444446%" stop-color="#eefbfc" stop-opacity="1"></stop><stop offset="85.55555555555554%" stop-color="#d8f2f5" stop-opacity="1"></stop></linearGradient></defs><g transform="translate(960, 0)"><path d="M0 459C-64.2 457.3 -128.4 455.5 -175.7 424.1C-222.9 392.6 -253.3 331.4 -282.8 282.8C-312.4 234.3 -341.2 198.5 -370.5 153.5C-399.7 108.4 -429.4 54.2 -459 0L0 0Z" fill="#e3f7f9"></path><path d="M0 401.6C-56.2 400.1 -112.3 398.6 -153.7 371.1C-195.1 343.5 -221.6 289.9 -247.5 247.5C-273.4 205 -298.6 173.7 -324.2 134.3C-349.7 94.9 -375.7 47.4 -401.6 0L0 0Z" fill="#cdeef2"></path><path d="M0 344.3C-48.1 343 -96.3 341.7 -131.7 318C-167.2 294.4 -189.9 248.5 -212.1 212.1C-234.3 175.7 -255.9 148.9 -277.9 115.1C-299.8 81.3 -322 40.7 -344.2 0L0 0Z" fill="#b6e5ed"></path><path d="M0 286.9C-40.1 285.8 -80.2 284.7 -109.8 265C-139.3 245.4 -158.3 207.1 -176.8 176.8C-195.3 146.4 -213.3 124.1 -231.5 95.9C-249.8 67.8 -268.3 33.9 -286.9 0L0 0Z" fill="#9edde8"></path><path d="M0 229.5C-32.1 228.6 -64.2 227.8 -87.8 212C-111.5 196.3 -126.6 165.7 -141.4 141.4C-156.2 117.2 -170.6 99.2 -185.2 76.7C-199.9 54.2 -214.7 27.1 -229.5 0L0 0Z" fill="#84d4e4"></path><path d="M0 172.1C-24.1 171.5 -48.1 170.8 -65.9 159C-83.6 147.2 -95 124.3 -106.1 106.1C-117.2 87.9 -128 74.4 -138.9 57.5C-149.9 40.7 -161 20.3 -172.1 0L0 0Z" fill="#68cbe0"></path><path d="M0 114.8C-16 114.3 -32.1 113.9 -43.9 106C-55.7 98.1 -63.3 82.8 -70.7 70.7C-78.1 58.6 -85.3 49.6 -92.6 38.4C-99.9 27.1 -107.3 13.6 -114.7 0L0 0Z" fill="#44c2dc"></path><path d="M0 57.4C-8 57.2 -16 56.9 -22 53C-27.9 49.1 -31.7 41.4 -35.4 35.4C-39.1 29.3 -42.7 24.8 -46.3 19.2C-50 13.6 -53.7 6.8 -57.4 0L0 0Z" fill="#29bddb"></path></g><g transform="translate(0, 540)"><path d="M0 -459C63.4 -456 126.8 -453 175.7 -424.1C224.5 -395.1 258.8 -340.3 294.2 -294.2C329.5 -248 365.9 -210.6 393.6 -163C421.2 -115.4 440.1 -57.7 459 0L0 0Z" fill="#e3f7f9"></path><path d="M0 -401.6C55.5 -399 111 -396.4 153.7 -371.1C196.4 -345.7 226.5 -297.8 257.4 -257.4C288.3 -217 320.2 -184.3 344.4 -142.6C368.6 -101 385.1 -50.5 401.6 0L0 0Z" fill="#cdeef2"></path><path d="M0 -344.2C47.6 -342 95.1 -339.7 131.7 -318C168.4 -296.4 194.1 -255.2 220.6 -220.6C247.1 -186 274.4 -157.9 295.2 -122.3C315.9 -86.6 330.1 -43.3 344.3 0L0 0Z" fill="#b6e5ed"></path><path d="M0 -286.9C39.6 -285 79.3 -283.1 109.8 -265C140.3 -247 161.8 -212.7 183.8 -183.8C205.9 -155 228.7 -131.6 246 -101.9C263.3 -72.2 275.1 -36.1 286.9 0L0 0Z" fill="#9edde8"></path><path d="M0 -229.5C31.7 -228 63.4 -226.5 87.8 -212C112.3 -197.6 129.4 -170.1 147.1 -147.1C164.8 -124 183 -105.3 196.8 -81.5C210.6 -57.7 220.1 -28.9 229.5 0L0 0Z" fill="#84d4e4"></path><path d="M0 -172.1C23.8 -171 47.6 -169.9 65.9 -159C84.2 -148.2 97.1 -127.6 110.3 -110.3C123.6 -93 137.2 -79 147.6 -61.1C158 -43.3 165 -21.6 172.1 0L0 0Z" fill="#68cbe0"></path><path d="M0 -114.7C15.9 -114 31.7 -113.2 43.9 -106C56.1 -98.8 64.7 -85.1 73.5 -73.5C82.4 -62 91.5 -52.6 98.4 -40.8C105.3 -28.9 110 -14.4 114.8 0L0 0Z" fill="#44c2dc"></path><path d="M0 -57.4C7.9 -57 15.9 -56.6 22 -53C28.1 -49.4 32.4 -42.5 36.8 -36.8C41.2 -31 45.7 -26.3 49.2 -20.4C52.7 -14.4 55 -7.2 57.4 0L0 0Z" fill="#29bddb"></path></g></svg>